<svg xmlns="http://www.w3.org/2000/svg" viewBox="0 0 120 120" fill="none">
  <rect width="120" height="120" rx="30" fill="#111827"/>
  <circle cx="36" cy="84" r="11" fill="white"/>
  <path d="M18 114 C18 94 54 94 54 114" fill="white"/>
  <circle cx="84" cy="84" r="11" fill="white"/>
  <path d="M66 114 C66 94 102 94 102 114" fill="white"/>
  <rect x="30" y="55" width="60" height="40" rx="6" fill="white"/>
  <rect x="40" y="55" width="6" height="40" fill="#111827"/>
  <rect x="74" y="55" width="6" height="40" fill="#111827"/>
  <path d="M48 55 V45 H72 V55" stroke="white" stroke-width="6" stroke-linecap="round" stroke-linejoin="round"/>
  <line x1="68" y1="46" x2="74" y2="58" stroke="white" stroke-width="3" stroke-linecap="round"/>
  <rect x="70" y="54" width="14" height="22" rx="3" fill="#111827" transform="rotate(-25 77 65)"/>
  <circle cx="73.5" cy="58" r="3" fill="white" transform="rotate(-25 77 65)"/>
  <circle cx="60" cy="81" r="13" fill="white" stroke="#111827" stroke-width="4"/>
  <path d="M38 114 C38 90 82 90 82 114" fill="white" stroke="#111827" stroke-width="4"/>
  <path d="M60 10 C46 10 34 22 34 36 C34 52 60 62 60 62 C60 62 86 52 86 36 C86 22 74 10 60 10 Z" fill="white" stroke="#111827" stroke-width="3"/>
  <circle cx="60" cy="30" r="8" fill="#111827"/>
</svg>
